<svg width="4000" height="4000" viewBox="0 0 4000 4000" fill="none" xmlns="http://www.w3.org/2000/svg">
<path d="M2002.11 3632.03L1878.93 3447H2125.3L2002.11 3632.03Z" fill="url(#paint0_linear_6_69)"/>
<path d="M944.214 2473L895 2689.75L1125.22 2602.04L944.214 2473Z" fill="url(#paint1_linear_6_69)"/>
<path d="M3055.79 2473L3105 2689.75L2874.78 2602.04L3055.79 2473Z" fill="url(#paint2_linear_6_69)"/>
<path d="M2001.48 739.784L2000.11 739.857L1998.75 739.784L1162.26 694.938L702.853 1019.55L1543.7 1143.14L2000.11 1210.23L2456.45 1143.14L2456.45 1143.14L3297.3 1019.55L2837.9 694.938L2001.48 739.784Z" fill="url(#paint3_linear_6_69)" stroke="url(#paint4_linear_6_69)" stroke-width="51"/>
<path d="M2000.95 597.41L2337.58 569.058V417.743L2000.08 393.596L1662.58 417.743V569.049L2000.95 597.41Z" fill="url(#paint5_linear_6_69)" stroke="url(#paint6_linear_6_69)" stroke-width="51"/>
<path d="M2003.36 2717.81C2003.73 2717.72 2004.11 2717.63 2004.51 2717.53C2009.04 2716.44 2015.73 2714.8 2024.31 2712.61C2041.47 2708.23 2066.17 2701.66 2096.18 2692.93C2156.24 2675.47 2237.31 2649.46 2321.6 2615.22C2406.02 2580.92 2492.87 2538.69 2564.9 2489.01C2637.38 2439.03 2692.18 2383.34 2716.49 2323.1C2742.41 2258.89 2763.95 2162.72 2781.52 2052.94C2799.01 1943.63 2812.3 1822.58 2822.24 1709.57C2832.18 1596.62 2838.75 1491.97 2842.84 1415.55C2844.88 1377.34 2846.3 1346.21 2847.21 1324.65C2847.26 1323.49 2847.3 1322.35 2847.35 1321.25L2005.73 1432.57L2002.4 1433.02L1999.06 1432.58L1152.65 1321.23C1152.69 1322.34 1152.74 1323.48 1152.79 1324.65C1153.7 1346.21 1155.12 1377.34 1157.16 1415.55C1161.25 1491.97 1167.82 1596.62 1177.76 1709.57C1187.7 1822.58 1200.99 1943.63 1218.48 2052.94C1236.05 2162.72 1257.59 2258.89 1283.51 2323.1C1307.79 2383.27 1362.95 2438.95 1436.08 2488.95C1508.75 2538.64 1596.44 2580.88 1681.72 2615.18C1766.86 2649.43 1848.78 2675.45 1909.48 2692.91C1939.81 2701.64 1964.78 2708.21 1982.13 2712.6C1990.8 2714.79 1997.57 2716.43 2002.15 2717.52C2002.57 2717.62 2002.98 2717.72 2003.36 2717.81Z" fill="url(#paint7_linear_6_69)" stroke="url(#paint8_linear_6_69)" stroke-width="51"/>
<path d="M3075.56 2856.47L3075.22 2856.33L3074.88 2856.17L3074.88 2856.17L3074.87 2856.17L3074.85 2856.16L3074.74 2856.11L3074.6 2856.04C3074.51 2856 3074.39 2855.95 3074.26 2855.89C3073.81 2855.69 3073.14 2855.38 3072.24 2854.98C3070.45 2854.17 3067.76 2852.98 3064.29 2851.47C3057.34 2848.44 3047.22 2844.12 3034.66 2839.03C3009.53 2828.85 2974.8 2815.63 2936.34 2803.44C2897.79 2791.22 2856 2780.2 2816.63 2774.21C2776.8 2768.15 2741.73 2767.61 2715.53 2774.5C2708.55 2776.34 2703.79 2777.39 2696.97 2778.9C2694.47 2779.46 2691.69 2780.07 2688.43 2780.81C2675.91 2783.64 2655.12 2788.49 2613.35 2798.91C2529.76 2819.76 2362.48 2862.81 2010 2956.25L2003.47 2957.98L1996.94 2956.25C1644.47 2862.81 1475.5 2819.78 1390.24 2798.94C1347.64 2788.53 1326.03 2783.69 1312.92 2780.87C1309.59 2780.15 1306.71 2779.55 1304.11 2779C1296.8 2777.47 1291.63 2776.39 1284.47 2774.5C1258.27 2767.61 1223.2 2768.15 1183.37 2774.21C1144 2780.2 1102.21 2791.22 1063.66 2803.44C1025.2 2815.63 990.468 2828.85 965.335 2839.03C952.785 2844.12 942.665 2848.44 935.712 2851.47C932.236 2852.98 929.555 2854.17 927.759 2854.98C926.861 2855.38 926.186 2855.69 925.743 2855.89L925.255 2856.11L925.146 2856.16L925.126 2856.17L925.125 2856.17L925.123 2856.17L924.784 2856.33L924.438 2856.47L631.963 2980.82L2000 3335.66L3368.04 2980.82L3075.56 2856.47Z" fill="url(#paint9_linear_6_69)" stroke="url(#paint10_linear_6_69)" stroke-width="51"/>
<path d="M698.282 1694.69L430.689 1285.95C435.717 1287.77 440.95 1289.67 446.37 1291.64C498.88 1310.72 568.88 1336.28 638.877 1362.27C708.911 1388.26 778.796 1414.62 831.136 1435.29C857.355 1445.64 878.892 1454.46 893.77 1461.04C897.952 1462.89 901.457 1464.5 904.304 1465.86C904.394 1466.55 904.485 1467.26 904.577 1467.96C905.546 1475.38 906.901 1485.16 908.51 1496.44C911.73 1519.02 916.006 1547.87 920.35 1576.44C924.692 1605.01 929.113 1633.37 932.622 1654.98C933.414 1659.86 934.162 1664.41 934.856 1668.55C930.098 1669.23 924.713 1669.95 918.782 1670.72C893.014 1674.05 858.256 1677.99 823.236 1681.77C788.258 1685.55 753.18 1689.16 726.835 1691.83C715.44 1692.98 705.684 1693.95 698.282 1694.69Z" fill="url(#paint11_linear_6_69)" stroke="url(#paint12_linear_6_69)" stroke-width="51"/>
<path d="M3302.1 1694.69L3569.7 1285.95C3564.67 1287.77 3559.44 1289.67 3554.02 1291.64C3501.51 1310.72 3431.51 1336.28 3361.51 1362.27C3291.47 1388.26 3221.59 1414.62 3169.25 1435.29C3143.03 1445.64 3121.49 1454.46 3106.61 1461.04C3102.43 1462.89 3098.93 1464.5 3096.08 1465.86C3095.99 1466.55 3095.9 1467.26 3095.81 1467.96C3094.84 1475.38 3093.48 1485.16 3091.88 1496.44C3088.65 1519.02 3084.38 1547.87 3080.04 1576.44C3075.69 1605.01 3071.27 1633.37 3067.76 1654.98C3066.97 1659.86 3066.22 1664.41 3065.53 1668.55C3070.29 1669.23 3075.67 1669.95 3081.6 1670.72C3107.37 1674.05 3142.13 1677.99 3177.15 1681.77C3212.13 1685.55 3247.21 1689.16 3273.55 1691.83C3284.94 1692.98 3294.7 1693.95 3302.1 1694.69Z" fill="url(#paint13_linear_6_69)" stroke="url(#paint14_linear_6_69)" stroke-width="51"/>
<defs>
<linearGradient id="paint0_linear_6_69" x1="2000" y1="2473" x2="2000" y2="3632.03" gradientUnits="userSpaceOnUse">
<stop stop-color="#A3EA20"/>
<stop offset="1" stop-color="#C5D839"/>
</linearGradient>
<linearGradient id="paint1_linear_6_69" x1="2000" y1="2473" x2="2000" y2="3632.03" gradientUnits="userSpaceOnUse">
<stop stop-color="#A3EA20"/>
<stop offset="1" stop-color="#C5D839"/>
</linearGradient>
<linearGradient id="paint2_linear_6_69" x1="2000" y1="2473" x2="2000" y2="3632.03" gradientUnits="userSpaceOnUse">
<stop stop-color="#A3EA20"/>
<stop offset="1" stop-color="#C5D839"/>
</linearGradient>
<linearGradient id="paint3_linear_6_69" x1="2000.08" y1="669" x2="2000.08" y2="1236" gradientUnits="userSpaceOnUse">
<stop stop-color="#A3EA20"/>
<stop offset="1" stop-color="#C5D839"/>
</linearGradient>
<linearGradient id="paint4_linear_6_69" x1="2000.08" y1="669" x2="2000.08" y2="1236" gradientUnits="userSpaceOnUse">
<stop stop-color="#A3EA20"/>
<stop offset="1" stop-color="#C5D839"/>
</linearGradient>
<linearGradient id="paint5_linear_6_69" x1="2000.08" y1="368" x2="2000.08" y2="623" gradientUnits="userSpaceOnUse">
<stop stop-color="#A3EA20"/>
<stop offset="1" stop-color="#C5D839"/>
</linearGradient>
<linearGradient id="paint6_linear_6_69" x1="2000.08" y1="368" x2="2000.08" y2="623" gradientUnits="userSpaceOnUse">
<stop stop-color="#A3EA20"/>
<stop offset="1" stop-color="#C5D839"/>
</linearGradient>
<linearGradient id="paint7_linear_6_69" x1="2000" y1="1292" x2="2000" y2="2744" gradientUnits="userSpaceOnUse">
<stop stop-color="#A3EA20"/>
<stop offset="1" stop-color="#C5D839"/>
</linearGradient>
<linearGradient id="paint8_linear_6_69" x1="2000" y1="1292" x2="2000" y2="2744" gradientUnits="userSpaceOnUse">
<stop stop-color="#A3EA20"/>
<stop offset="1" stop-color="#C5D839"/>
</linearGradient>
<linearGradient id="paint9_linear_6_69" x1="2000" y1="2744" x2="2000" y2="3362" gradientUnits="userSpaceOnUse">
<stop stop-color="#A3EA20"/>
<stop offset="1" stop-color="#C5D839"/>
</linearGradient>
<linearGradient id="paint10_linear_6_69" x1="2000" y1="2744" x2="2000" y2="3362" gradientUnits="userSpaceOnUse">
<stop stop-color="#A3EA20"/>
<stop offset="1" stop-color="#C5D839"/>
</linearGradient>
<linearGradient id="paint11_linear_6_69" x1="669.948" y1="1241.37" x2="661.437" y2="1721.16" gradientUnits="userSpaceOnUse">
<stop stop-color="#A3EA20"/>
<stop offset="1" stop-color="#C5D839"/>
</linearGradient>
<linearGradient id="paint12_linear_6_69" x1="669.948" y1="1241.37" x2="661.437" y2="1721.16" gradientUnits="userSpaceOnUse">
<stop stop-color="#A3EA20"/>
<stop offset="1" stop-color="#C5D839"/>
</linearGradient>
<linearGradient id="paint13_linear_6_69" x1="3330.44" y1="1241.37" x2="3338.95" y2="1721.16" gradientUnits="userSpaceOnUse">
<stop stop-color="#A3EA20"/>
<stop offset="1" stop-color="#C5D839"/>
</linearGradient>
<linearGradient id="paint14_linear_6_69" x1="3330.44" y1="1241.37" x2="3338.95" y2="1721.16" gradientUnits="userSpaceOnUse">
<stop stop-color="#A3EA20"/>
<stop offset="1" stop-color="#C5D839"/>
</linearGradient>
</defs>
</svg>
